<?xml version="1.0" encoding="UTF-8" standalone="no"?>
<!-- Created with Inkscape (http://www.inkscape.org/) -->

<svg
   xmlns:dc="http://purl.org/dc/elements/1.1/"
   xmlns:cc="http://creativecommons.org/ns#"
   xmlns:rdf="http://www.w3.org/1999/02/22-rdf-syntax-ns#"
   xmlns:svg="http://www.w3.org/2000/svg"
   xmlns="http://www.w3.org/2000/svg"
   xmlns:sodipodi="http://sodipodi.sourceforge.net/DTD/sodipodi-0.dtd"
   xmlns:inkscape="http://www.inkscape.org/namespaces/inkscape"
   width="100%"
   height="100%"
   id="pfd"
   version="1.1"
   inkscape:version="0.48.4 r9939"
   sodipodi:docname="efis.svg"
   viewBox="0 0 1024 768"
   preserveAspectRatio="xMinYMin meet">
  <defs
     id="defs4" />
  <sodipodi:namedview
     id="base"
     pagecolor="#337cf8"
     bordercolor="#666666"
     borderopacity="1.0"
     inkscape:pageopacity="1"
     inkscape:pageshadow="2"
     inkscape:zoom="1.3046875"
     inkscape:cx="512"
     inkscape:cy="445.31737"
     inkscape:document-units="px"
     inkscape:current-layer="Compass"
     showgrid="false"
     inkscape:window-width="1920"
     inkscape:window-height="1177"
     inkscape:window-x="1920"
     inkscape:window-y="0"
     inkscape:window-maximized="1"
     showguides="true"
     inkscape:guide-bbox="true" />
  <metadata
     id="metadata7">
    <rdf:RDF>
      <cc:Work
         rdf:about="">
        <dc:format>image/svg+xml</dc:format>
        <dc:type
           rdf:resource="http://purl.org/dc/dcmitype/StillImage" />
        <dc:title>FlightGear FIS EFIS</dc:title>
        <dc:creator>
          <cc:Agent>
            <dc:title>Torsten Dreyer</dc:title>
          </cc:Agent>
        </dc:creator>
        <dc:rights>
          <cc:Agent>
            <dc:title>Torsten Dreyer</dc:title>
          </cc:Agent>
        </dc:rights>
        <dc:publisher>
          <cc:Agent>
            <dc:title>flightgear.org</dc:title>
          </cc:Agent>
        </dc:publisher>
        <cc:license
           rdf:resource="http://www.gnu.org/licenses/gpl-2.0.html" />
        <dc:date>2014-10-10</dc:date>
      </cc:Work>
    </rdf:RDF>
  </metadata>
  <g
     inkscape:groupmode="layer"
     id="Horizon"
     data-bind="attr: { transform: horizonAnimation }"
     inkscape:label="Horizon"
     style="display:inline"
     sodipodi:insensitive="true">
    <path
       inkscape:connector-curvature="0"
       id="Ground"
       d="m -128,384 1280,0 0,1284 -1280,0 z"
       style="fill:#da6d05;fill-opacity:1;stroke:none;display:inline" />
    <path
       inkscape:connector-curvature="0"
       id="Sky"
       d="m -128,-900 1280,0 0,1284 -1280,0 z"
       style="fill:#337cf8;fill-opacity:1;stroke:none;display:inline" />
    <path
       id="PitchLines"
       style="fill:none;stroke:#ffffff;stroke-width:2.99999976;stroke-linecap:square;stroke-linejoin:miter;stroke-miterlimit:4;stroke-opacity:1;stroke-dasharray:none;display:inline"
       d="m 261.12,998.5 501.76,0 m -501.76,-500 501.76,0 m -501.76,100 501.76,0 m -501.76,200 501.76,0 m -501.76,100 501.76,0 m -501.76,-1014 501.76,0 m -501.76,100 501.76,0 m -501.76,100 501.76,0 m -501.76,100 501.76,0 m -501.76,100 501.76,0 m -501.76,414 501.76,0 m -501.76,-914 501.76,0"
       inkscape:connector-curvature="0" />
  </g>
  <g
     inkscape:groupmode="layer"
     id="Compass"
     data-bind="attr: { transform: compassAnimation }"
     inkscape:label="Compass"
     style="display:inline"
     sodipodi:insensitive="true">
    <path
       id="CompassLabels"
       style="fill:#ffffff;fill-opacity:1;stroke:none"
       d="m 752.20416,691.14861 c 2.47317,-4.28365 4.89783,-7.47499 7.27399,-9.57402 2.40211,-2.10594 4.87717,-3.36799 7.42519,-3.78615 2.56445,-0.40857 5.16474,0.1481 7.80088,1.67003 1.94409,1.12247 3.42103,2.5024 4.43081,4.13979 1.01922,1.62097 1.5786,3.4487 1.67812,5.48321 0.10896,2.01805 -0.17823,4.24671 -0.86157,6.68596 -0.67391,2.4228 -2.04768,5.43004 -4.1213,9.02173 -2.4542,4.25072 -4.8741,7.43382 -7.25972,9.54931 -2.37617,2.09899 -4.85123,3.36105 -7.42519,3.78614 -2.54802,0.41812 -5.14831,-0.13856 -7.80087,-1.67002 -3.49286,-2.0166 -5.51312,-4.85253 -6.06081,-8.50781 -0.64825,-4.39432 0.99191,-9.9937 4.92047,-16.79817 m 4.572,2.63965 c -3.43392,5.94772 -5.02964,10.30963 -4.78714,13.08574 0.26846,2.76914 1.42419,4.74347 3.46719,5.92299 2.04296,1.17951 4.32717,1.18025 6.85261,0.002 2.54188,-1.16853 5.52503,-4.71842 8.94946,-10.64966 3.44339,-5.96418 5.03087,-10.33085 4.76243,-13.10002 -0.25204,-2.7596 -1.416,-4.73869 -3.49191,-5.93726 -2.043,-1.17949 -4.17349,-1.25622 -6.39144,-0.23021 -2.80691,1.32312 -5.9273,4.95853 -9.3612,10.90623 m -37.51485,-10.58737 4.79088,1.97518 c -0.94464,2.81566 -1.13077,5.13561 -0.55839,6.95986 0.59834,1.81728 1.77897,3.23483 3.54187,4.25265 2.0924,1.20804 4.27382,1.50093 6.54431,0.87864 2.28691,-0.6128 4.04867,-1.9901 5.28529,-4.13193 1.17949,-2.04299 1.48247,-4.10874 0.90895,-6.1973 -0.56407,-2.10501 -1.87582,-3.75203 -3.93525,-4.94107 -0.84028,-0.48511 -1.98161,-0.92439 -3.42398,-1.31781 l 2.74867,-3.61937 c 0.2775,0.20421 0.50689,0.35859 0.68815,0.46323 1.89467,1.09391 3.88527,1.58417 5.97179,1.47073 2.08646,-0.1134 3.72423,-1.19983 4.91329,-3.2593 0.94167,-1.63107 1.16974,-3.30074 0.6842,-5.009 -0.48561,-1.70822 -1.6016,-3.06648 -3.34799,-4.0748 -1.72998,-0.99876 -3.4855,-1.28738 -5.26657,-0.86587 -1.78113,0.42156 -3.46425,1.6246 -5.04935,3.60912 l -3.99185,-3.35913 c 2.26539,-2.66817 4.83278,-4.26134 7.70217,-4.77953 2.87885,-0.53461 5.75167,0.0256 8.61846,1.68074 1.97704,1.14149 3.55029,2.62096 4.71973,4.43841 1.17888,1.801 1.78165,3.68675 1.80831,5.65721 0.0431,1.98001 -0.41101,3.79379 -1.36218,5.44134 -0.90371,1.56521 -2.14664,2.74779 -3.72882,3.54775 -1.58224,0.79999 -3.41592,1.10331 -5.50101,0.90996 1.85643,1.73087 2.92596,3.72133 3.20858,5.97139 0.29206,2.2336 -0.23726,4.52016 -1.58796,6.85971 -1.82638,3.16333 -4.53017,5.183 -8.11138,6.05904 -3.57173,0.85954 -7.12049,0.27151 -10.64627,-1.7641 -3.17981,-1.83586 -5.2772,-4.30993 -6.29217,-7.42219 -0.99851,-3.10276 -0.77567,-6.24726 0.66851,-9.43354 M 109.44031,855.319 c -4.28366,-2.4731 -7.47499,-4.8978 -9.574021,-7.2739 -2.105946,-2.4021 -3.367989,-4.8772 -3.786138,-7.4252 -0.408588,-2.5645 0.148085,-5.1648 1.670015,-7.8009 1.12247,-1.9441 2.502404,-3.421 4.139794,-4.4308 1.62097,-1.0192 3.44871,-1.5786 5.4832,-1.6782 2.01806,-0.1089 4.24672,0.1783 6.68596,0.8616 2.4228,0.6739 5.43004,2.0477 9.02173,4.1213 4.25073,2.4542 7.43383,4.8741 9.54931,7.2598 2.09901,2.3761 3.36105,4.8512 3.78615,7.4252 0.41811,2.548 -0.13856,5.1483 -1.67002,7.8008 -2.0166,3.4929 -4.85254,5.5131 -8.50782,6.0608 -4.39431,0.6483 -9.9937,-0.9919 -16.79816,-4.9205 m 2.63965,-4.572 c 5.94773,3.434 10.30964,5.0297 13.08573,4.7872 2.76915,-0.2685 4.74347,-1.4242 5.923,-3.4672 1.17951,-2.043 1.18024,-4.3272 0.002,-6.8526 -1.16855,-2.5419 -4.71844,-5.525 -10.64968,-8.9495 -5.96418,-3.4434 -10.33085,-5.0308 -13.10001,-4.7624 -2.75961,0.252 -4.73869,1.416 -5.93726,3.4919 -1.17949,2.043 -1.25623,4.1735 -0.23021,6.3915 1.32312,2.8069 4.95853,5.9273 10.90623,9.3611 m -18.905366,32.7454 c -4.283661,-2.4731 -7.474998,-4.8978 -9.574025,-7.2739 -2.105946,-2.4021 -3.367989,-4.8772 -3.786138,-7.4252 -0.408588,-2.5645 0.148085,-5.1648 1.670015,-7.8009 1.12247,-1.9441 2.502403,-3.421 4.139797,-4.4308 1.620966,-1.0192 3.448703,-1.5786 5.483197,-1.6781 2.018058,-0.109 4.246719,0.1782 6.685964,0.8615 2.422796,0.6739 5.430036,2.0477 9.021726,4.1213 4.25073,2.4542 7.43383,4.8741 9.54931,7.2598 2.09901,2.3761 3.36105,4.8512 3.78615,7.4252 0.41811,2.548 -0.13856,5.1483 -1.67002,7.8008 -2.0166,3.4929 -4.85254,5.5131 -8.50782,6.0608 -4.39431,0.6483 -9.993695,-0.9919 -16.798156,-4.9205 m 2.639645,-4.572 c 5.947731,3.434 10.309631,5.0297 13.085731,4.7872 2.76915,-0.2685 4.74347,-1.4242 5.923,-3.4672 1.1795,-2.043 1.18024,-4.3272 0.002,-6.8526 -1.16855,-2.5419 -4.71844,-5.525 -10.64968,-8.9495 -5.964181,-3.4434 -10.330846,-5.0308 -13.100005,-4.7624 -2.759613,0.252 -4.738695,1.416 -5.93726,3.4919 -1.17949,2.043 -1.256232,4.1735 -0.23022,6.3915 1.323122,2.8069 4.958531,5.9273 10.906234,9.3611 m -10.587363,37.5149 1.975182,-4.7909 c 2.815658,0.9447 5.135607,1.1308 6.959859,0.5584 1.81729,-0.5983 3.234831,-1.779 4.252646,-3.5419 1.208045,-2.0924 1.500931,-4.2738 0.878636,-6.5443 -0.612782,-2.2869 -1.990093,-4.0486 -4.131929,-5.2852 -2.042981,-1.1795 -4.10874,-1.4825 -6.197293,-0.909 -2.10501,0.5641 -3.752034,1.8758 -4.941072,3.9352 -0.485112,0.8403 -0.924376,1.9817 -1.317813,3.424 L 79.08533,900.533 c 0.204211,-0.2775 0.358595,-0.5069 0.463235,-0.6882 1.093918,-1.8947 1.584166,-3.8853 1.470742,-5.9718 -0.113406,-2.0864 -1.199847,-3.7242 -3.259314,-4.9133 -1.631074,-0.9416 -3.300742,-1.1697 -5.008997,-0.6842 -1.708222,0.4856 -3.066482,1.6016 -4.074807,3.348 -0.998755,1.73 -1.287375,3.4855 -0.86587,5.2666 0.421565,1.7811 1.624604,3.4642 3.609127,5.0493 l -3.359133,3.9919 c -2.668167,-2.2654 -4.261341,-4.8328 -4.77953,-7.7022 -0.534611,-2.8788 0.02564,-5.7516 1.680739,-8.6184 1.141494,-1.9771 2.620965,-3.5503 4.438409,-4.7198 1.80102,-1.1789 3.686755,-1.7816 5.657217,-1.8083 1.980008,-0.043 3.793787,0.411 5.441338,1.3622 1.565204,0.9037 2.747784,2.1466 3.547752,3.7288 0.799995,1.5823 1.103306,3.4159 0.909954,5.501 1.730868,-1.8564 3.721333,-2.9259 5.971396,-3.2085 2.233595,-0.2921 4.520159,0.2372 6.859707,1.5879 3.163325,1.8264 5.182995,4.5302 6.059045,8.1114 0.85953,3.5717 0.2715,7.1205 -1.76411,10.6463 -1.83586,3.1798 -4.309926,5.2772 -7.42219,6.2921 -3.102754,0.9985 -6.247259,0.7757 -9.433538,-0.6685 M 290.40511,687.56595 c -2.47316,-4.28365 -4.02461,-7.97914 -4.65435,-11.08647 -0.62275,-3.13325 -0.47818,-5.90775 0.4337,-8.32347 0.92838,-2.42516 2.71062,-4.39875 5.34671,-5.92075 1.94414,-1.12239 3.87766,-1.7115 5.80059,-1.76729 1.9134,-0.0722 3.77595,0.35724 5.58765,1.28829 1.80217,0.91468 3.58864,2.27771 5.35942,4.08912 1.76125,1.79503 3.67872,4.48836 5.7524,8.08002 2.45414,4.25076 4.00083,7.93801 4.64008,11.06177 0.62971,3.10732 0.48513,5.8818 -0.43369,8.32347 -0.91192,2.4157 -2.69416,4.38929 -5.34672,5.92075 -3.49286,2.0166 -6.95898,2.34823 -10.39839,0.99491 -4.12971,-1.63577 -8.15884,-5.85589 -12.0874,-12.66035 m 4.572,-2.63965 c 3.43392,5.94774 6.41359,9.51062 8.93901,10.68867 2.53238,1.15207 4.82007,1.13834 6.86306,-0.0412 2.04297,-1.1795 3.1857,-3.15732 3.42821,-5.93344 0.25894,-2.7856 -1.32377,-7.14402 -4.74816,-13.0753 -3.44344,-5.96415 -6.43135,-9.52228 -8.96372,-10.67438 -2.51592,-1.16154 -4.81184,-1.14305 -6.88778,0.0555 -2.04297,1.17956 -3.17467,2.98624 -3.39509,5.42006 -0.25759,3.0924 1.33056,7.61245 4.76447,13.56013 m -27.92651,27.19501 4.10598,-3.16144 c 1.96612,2.22592 3.8822,3.54708 5.74823,3.96352 1.87299,0.39046 3.69093,0.0768 5.45383,-0.94104 2.0924,-1.20804 3.43676,-2.95078 4.03308,-5.22822 0.61277,-2.28691 0.30086,-4.5013 -0.93571,-6.64316 -1.17954,-2.04295 -2.81705,-3.33822 -4.91253,-3.88581 -2.10504,-0.56402 -4.18727,-0.25153 -6.24672,0.93748 -0.84027,0.48515 -1.79135,1.25394 -2.85326,2.30636 l -1.76012,-4.19011 c 0.3156,-0.13822 0.56399,-0.25969 0.74524,-0.36433 1.8947,-1.09387 3.31456,-2.57266 4.25959,-4.43636 0.94503,-1.86363 0.82302,-3.82519 -0.366,-5.88469 -0.94172,-1.63105 -2.27365,-2.66339 -3.99581,-3.09703 -1.72216,-0.43356 -3.45646,-0.14621 -5.20288,0.86205 -1.72994,0.99881 -2.85765,2.37483 -3.38315,4.12805 -0.52549,1.75329 -0.32518,3.81243 0.60091,6.17743 l -4.90501,1.77746 c -1.17801,-3.29596 -1.27405,-6.31597 -0.28812,-9.06003 0.97644,-2.76045 2.89804,-4.96827 5.76479,-6.62344 1.9771,-1.14142 4.04497,-1.76416 6.20364,-1.8682 2.14917,-0.12043 4.08365,0.30042 5.80345,1.26256 1.73628,0.95272 3.08002,2.25283 4.03126,3.90036 0.90365,1.56523 1.30633,3.23294 1.20803,5.00313 -0.0983,1.77026 -0.75246,3.50992 -1.96247,5.219 2.4272,-0.7423 4.68576,-0.67331 6.77568,0.20698 2.08038,0.86385 3.79595,2.46554 5.1467,4.80506 1.82633,3.16335 2.22353,6.51474 1.19159,10.05417 -1.04148,3.523 -3.32512,6.30229 -6.85089,8.33789 -3.17982,1.83587 -6.37111,2.41524 -9.57389,1.73809 -3.18632,-0.68664 -5.79813,-2.45187 -7.83543,-5.29571 m -28.17342,16.2659 4.10599,-3.16144 c 1.96612,2.22592 3.88219,3.54709 5.74823,3.96352 1.87299,0.39046 3.69093,0.0768 5.45383,-0.94104 2.0924,-1.20804 3.43676,-2.95078 4.03308,-5.22822 0.61277,-2.28691 0.30086,-4.5013 -0.93571,-6.64316 -1.17954,-2.04295 -2.81705,-3.33822 -4.91254,-3.88581 -2.10503,-0.56402 -4.18727,-0.25152 -6.24672,0.93748 -0.84026,0.48515 -1.79134,1.25394 -2.85325,2.30636 l -1.76012,-4.19011 c 0.31559,-0.13821 0.56399,-0.25969 0.74524,-0.36433 1.8947,-1.09387 3.31456,-2.57266 4.25959,-4.43636 0.94503,-1.86363 0.82302,-3.82518 -0.366,-5.88469 -0.94172,-1.63104 -2.27365,-2.66338 -3.99581,-3.09703 -1.72216,-0.43356 -3.45646,-0.14621 -5.20288,0.86205 -1.72995,0.99882 -2.85766,2.37484 -3.38316,4.12805 -0.52548,1.75329 -0.32517,3.81243 0.60092,6.17743 l -4.90502,1.77747 c -1.178,-3.29597 -1.27404,-6.31598 -0.28811,-9.06004 0.97644,-2.76045 2.89804,-4.96826 5.76479,-6.62344 1.9771,-1.14142 4.04497,-1.76416 6.20364,-1.8682 2.14917,-0.12043 4.08365,0.30042 5.80345,1.26256 1.73628,0.95272 3.08002,2.25284 4.03125,3.90037 0.90366,1.56522 1.30633,3.23294 1.20804,5.00312 -0.0983,1.77026 -0.75247,3.50993 -1.96247,5.219 2.4272,-0.7423 4.68576,-0.6733 6.77568,0.20698 2.08038,0.86385 3.79595,2.46555 5.1467,4.80506 1.82633,3.16335 2.22353,6.51474 1.19159,10.05417 -1.04148,3.523 -3.32512,6.30229 -6.85089,8.33789 -3.17982,1.83587 -6.37111,2.41524 -9.57389,1.73809 -3.18633,-0.68664 -5.79813,-2.45187 -7.83543,-5.2957 m 686.62173,144.2246 c 4.28364,-2.4731 7.97913,-4.0246 11.08647,-4.6543 3.13325,-0.6228 5.90775,-0.4782 8.32347,0.4337 2.42516,0.9284 4.39875,2.7106 5.92075,5.3467 1.1224,1.9441 1.7115,3.8777 1.7673,5.8006 0.0722,1.9134 -0.35725,3.7759 -1.2883,5.5876 -0.91468,1.8022 -2.27772,3.5887 -4.08913,5.3595 -1.79502,1.7612 -4.48836,3.6787 -8.08002,5.7524 -4.25075,2.4541 -7.938,4.0008 -11.06176,4.64 -3.10732,0.6297 -5.8818,0.4852 -8.32347,-0.4337 -2.4157,-0.9119 -4.38928,-2.6941 -5.92075,-5.3467 -2.01659,-3.4928 -2.34823,-6.9589 -0.9949,-10.3984 1.63576,-4.1297 5.85587,-8.1588 12.66034,-12.0874 m 2.63964,4.572 c -5.94773,3.434 -9.51062,6.4136 -10.68866,8.9391 -1.15207,2.5323 -1.13835,4.82 0.0412,6.863 1.17949,2.043 3.15731,3.1857 5.93343,3.4282 2.78561,0.259 7.14403,-1.3238 13.0753,-4.7481 5.96416,-3.4435 9.52228,-6.4314 10.67438,-8.9638 1.16154,-2.5159 1.14306,-4.8118 -0.0554,-6.8877 -1.17956,-2.043 -2.98624,-3.1747 -5.42006,-3.3951 -3.09241,-0.2576 -7.61245,1.3305 -13.56014,4.7644 m 3.91101,-15.142 -2.90002,-4.224 c 1.51809,-1.4037 2.4633,-2.6963 2.83563,-3.8778 0.5742,-1.9352 0.35241,-3.7842 -0.66536,-5.5471 -0.81809,-1.4169 -1.93169,-2.4325 -3.34077,-3.0468 -1.83007,-0.8107 -3.95843,-1.0537 -6.38511,-0.7291 -2.42673,0.3247 -5.46191,1.5169 -9.10556,3.5766 2.24936,0.1292 4.21654,0.7399 5.90155,1.832 1.68495,1.0921 3.01733,2.4867 3.99712,4.1837 1.71217,2.9656 2.0719,6.1189 1.07921,9.46 -0.96677,3.348 -3.18007,6.0208 -6.63993,8.0184 -2.27367,1.3127 -4.67616,2.0407 -7.20748,2.1841 -2.50537,0.1504 -4.77165,-0.3315 -6.79888,-1.4457 -2.02725,-1.1142 -3.66868,-2.7587 -4.92429,-4.9335 -2.14025,-3.707 -2.5265,-7.515 -1.15875,-11.4241 1.38422,-3.9186 5.2067,-7.6852 11.46747,-11.2998 7.00214,-4.0427 12.83983,-5.6887 17.51308,-4.9379 4.07104,0.6592 7.21001,2.8999 9.41689,6.7222 1.64558,2.8503 2.19248,5.643 1.64073,8.378 -0.54232,2.7515 -2.1175,5.1217 -4.72553,7.1108 m -26.10617,-9.1468 c -1.53225,0.8846 -2.8131,2.0525 -3.84254,3.5036 -1.01995,1.4675 -1.56294,3.0002 -1.62897,4.5981 -0.0496,1.5883 0.29662,3.025 1.03859,4.3101 1.08438,1.8782 2.77446,3.0552 5.07023,3.5311 2.29576,0.4759 4.74521,-0.038 7.34839,-1.5405 2.50428,-1.4459 4.08787,-3.2499 4.75079,-5.412 0.67934,-2.1716 0.43402,-4.2706 -0.73595,-6.2971 -1.16052,-2.0101 -2.86997,-3.2968 -5.12834,-3.8601 -2.24194,-0.5729 -4.53268,-0.184 -6.8722,1.1668 m 61.31025,242.2503 41.83478,0 0,30.2489 -4.9368,0 0,-24.7128 -12.813,0 0,23.1433 -4.90831,0 0,-23.1433 -14.23982,0 0,25.683 -4.93685,0 0,-31.2191 m -910.507436,23.771 -41.834804,11.1008 0,-5.6788 27.42377,-6.3637 c 2.872706,-0.6849 5.726374,-1.2746 8.561011,-1.7693 -4.47074,-1.0653 -7.048553,-1.6931 -7.733446,-1.8834 l -28.251335,-7.9617 0,-6.6776 21.174233,-5.9927 c 5.250768,-1.5029 10.187612,-2.5873 14.810548,-3.2532 -2.644393,-0.5327 -5.678792,-1.227 -9.103208,-2.0832 l -26.881573,-6.5634 0,-5.5647 41.834804,11.4718 0,5.3363 -31.875495,8.8179 c -2.663391,0.742 -4.299494,1.1795 -4.908313,1.3127 1.921506,0.4375 3.557609,0.8466 4.908313,1.227 l 31.875495,8.875 0,5.6502 m 33.50052,210.5395 c -4.283656,2.4732 -7.979143,4.0246 -11.08647,4.6544 -3.133261,0.6227 -5.907749,0.4781 -8.323473,-0.4337 -2.425173,-0.9284 -4.39875,-2.7107 -5.92075,-5.3468 -1.122395,-1.9441 -1.711492,-3.8776 -1.767298,-5.8005 -0.07219,-1.9135 0.357253,-3.776 1.288302,-5.5877 0.914668,-1.8022 2.277714,-3.5886 4.089124,-5.3594 1.795021,-1.7613 4.48836,-3.6787 8.08002,-5.7524 4.250754,-2.4542 7.938005,-4.0008 11.061754,-4.6401 3.107329,-0.6297 5.881812,-0.4851 8.323482,0.4337 2.415699,0.9119 4.389275,2.6941 5.920735,5.3467 2.0166,3.4929 2.34823,6.959 0.99491,10.3984 -1.63576,4.1297 -5.85587,8.1588 -12.660336,12.0874 m -2.639645,-4.572 c 5.947738,-3.4339 9.510618,-6.4136 10.688655,-8.939 1.152077,-2.5324 1.138345,-4.8201 -0.04118,-6.8631 -1.179505,-2.0429 -3.157309,-3.1857 -5.933433,-3.4282 -2.785605,-0.2589 -7.144029,1.3238 -13.075297,4.7482 -5.964154,3.4434 -9.522285,6.4313 -10.674384,8.9637 -1.161538,2.5159 -1.143055,4.8118 0.05544,6.8878 1.17956,2.043 2.986239,3.1747 5.42005,3.3951 3.092408,0.2576 7.61246,-1.3306 13.560144,-4.7645 m 28.540606,8.1697 -8.67445,5.0082 9.07467,15.7178 -4.07773,2.3542 -33.023358,-2.9784 -2.097445,-3.6328 23.477833,-13.555 -2.825132,-4.8932 4.077722,-2.3543 2.82514,4.8933 8.67445,-5.0082 2.5683,4.4484 m -12.75218,7.3625 -16.335626,9.4313 22.884806,1.9122 -6.54918,-11.3435 m 19.47764,14.16 4.27544,-2.4684 13.82603,23.9474 c -1.05187,0.6513 -2.1815,1.0728 -3.38883,1.2645 -1.98304,0.3322 -4.15063,0.2875 -6.5028,-0.1338 -2.36166,-0.4378 -5.31289,-1.3261 -8.85373,-2.6648 -5.50263,-2.0733 -9.59258,-3.2597 -12.26986,-3.5593 -2.6937,-0.29 -4.88082,0.05 -6.56138,1.0203 -1.76285,1.0178 -2.87944,2.5082 -3.34976,4.4712 -0.496235,1.9561 -0.159365,3.9474 1.0106,5.9739 1.23663,2.1418 2.86845,3.4843 4.89547,4.0275 2.02708,0.5431 4.1822,0.1666 6.46532,-1.1296 l 2.17008,4.8431 c -3.59116,1.656 -6.8662,1.9761 -9.82513,0.9605 -2.97532,-1.0062 -5.457034,-3.231 -7.445129,-6.6744 -2.00704,-3.4764 -2.631755,-6.7843 -1.874144,-9.9237 0.757687,-3.1394 2.561656,-5.532 5.411903,-7.1776 1.4499,-0.837 3.04627,-1.3633 4.7891,-1.5787 1.7429,-0.2154 3.78821,-0.078 6.13592,0.4116 2.33826,0.4733 5.78106,1.5281 10.32842,3.1644 3.78168,1.3754 6.29496,2.209 7.53982,2.5007 1.2284,0.3013 2.38893,0.4661 3.4816,0.4942 l -10.25894,-17.769 m 792.92568,7.6318 c 4.28363,2.4731 7.47496,4.8978 9.574,7.274 2.10598,2.4021 3.36803,4.8772 3.78614,7.4252 0.40862,2.5644 -0.1481,5.1647 -1.66998,7.8008 -1.12252,1.9441 -2.50246,3.421 -4.13983,4.4308 -1.62097,1.0193 -3.44873,1.5786 -5.48317,1.6782 -2.01805,0.1089 -4.24674,-0.1783 -6.68597,-0.8616 -2.42283,-0.6739 -5.43004,-2.0477 -9.02173,-4.1213 -4.25078,-2.4542 -7.43389,-4.8741 -9.5493,-7.2597 -2.09903,-2.3762 -3.36108,-4.8513 -3.78615,-7.4252 -0.41811,-2.548 0.13852,-5.1483 1.66998,-7.8009 2.0166,-3.4929 4.85257,-5.5131 8.50783,-6.0608 4.39434,-0.6482 9.99374,0.9919 16.79818,4.9205 m -2.63964,4.572 c -5.94777,-3.434 -10.3097,-5.0297 -13.08578,-4.7872 -2.76913,0.2685 -4.74341,1.4243 -5.92293,3.4672 -1.17951,2.043 -1.1803,4.3272 -0.002,6.8527 1.16852,2.5418 4.71844,5.525 10.64966,8.9494 5.96415,3.4434 10.33084,5.0309 13.09996,4.7624 2.75963,-0.252 4.73876,-1.416 5.93729,-3.4919 1.17952,-2.043 1.25625,-4.1735 0.23017,-6.3915 -1.32312,-2.8068 -4.95848,-5.9272 -10.90617,-9.3611 m -8.18494,-17.214 -4.27548,-2.4685 13.82604,-23.9474 c 1.08992,0.5854 2.01986,1.3529 2.78956,2.3026 1.27912,1.5513 2.32429,3.4508 3.13551,5.6985 0.80162,2.2642 1.50796,5.2641 2.11903,8.9999 0.95581,5.8021 1.97333,9.9373 3.05252,12.4057 1.09568,2.4778 2.48373,4.2019 4.16432,5.1722 1.7629,1.0178 3.61192,1.2396 5.54709,0.6654 1.94213,-0.5483 3.4982,-1.8357 4.66819,-3.8622 1.2366,-2.1418 1.58328,-4.2263 1.04013,-6.2533 -0.54313,-2.0271 -1.94674,-3.7052 -4.21089,-5.0344 l 3.1092,-4.3009 c 3.22968,2.2821 5.14451,4.9583 5.74441,8.0286 0.61628,3.0798 -0.0696,6.3414 -2.05758,9.7849 -2.00716,3.4763 -4.5595,5.6712 -7.65712,6.5849 -3.09767,0.9135 -6.07169,0.5475 -8.92197,-1.0981 -1.44989,-0.8371 -2.7038,-1.9565 -3.76173,-3.3581 -1.058,-1.4017 -1.96185,-3.2416 -2.71155,-5.5197 -0.75918,-2.2616 -1.56714,-5.7706 -2.42378,-10.5269 -0.69967,-3.9627 -1.23443,-6.556 -1.60419,-7.78 -0.3532,-1.2145 -0.79081,-2.3019 -1.31276,-3.2622 l -10.25895,17.769 m 15.81436,-37.2651 2.56831,-4.4484 28.34639,16.3658 c -0.40317,-1.6607 -0.61135,-3.6591 -0.62454,-5.9953 -0.0228,-2.3197 0.11004,-4.319 0.39837,-5.9978 l 4.30017,2.4827 c -0.2666,3.1632 -0.10531,6.156 0.48386,8.9785 0.58911,2.8225 1.44275,5.0727 2.56092,6.7508 l -1.65513,2.8667 -36.37835,-21.003 m -185.50114,217.4231 c 2.47315,4.2836 4.02459,7.9791 4.65433,11.0865 0.62277,3.1333 0.4782,5.9077 -0.43369,8.3234 -0.92837,2.4252 -2.71063,4.3988 -5.3467,5.9208 -1.94417,1.1224 -3.8777,1.7115 -5.80059,1.7673 -1.91342,0.072 -3.77598,-0.3573 -5.58764,-1.2883 -1.80217,-0.9147 -3.58866,-2.2777 -5.35943,-4.0891 -1.76127,-1.7951 -3.67872,-4.4884 -5.7524,-8.08 -2.45412,-4.2508 -4.00081,-7.938 -4.64008,-11.0618 -0.62972,-3.1073 -0.48515,-5.8818 0.4337,-8.3235 0.91191,-2.4157 2.69412,-4.3893 5.34669,-5.9208 3.49285,-2.0166 6.959,-2.3482 10.39839,-0.9948 4.12974,1.6357 8.15887,5.8559 12.08742,12.6603 m -4.572,2.6397 c -3.43395,-5.9478 -6.41357,-9.5106 -8.93904,-10.6887 -2.53236,-1.1521 -4.82002,-1.1383 -6.86302,0.041 -2.04296,1.1795 -3.18574,3.1572 -3.42821,5.9334 -0.25896,2.7856 1.32377,7.144 4.74815,13.0753 3.44342,5.9641 6.43134,9.5223 8.9637,10.6743 2.51592,1.1616 4.81187,1.1431 6.88779,-0.055 2.04299,-1.1795 3.17468,-2.9862 3.39507,-5.4201 0.2576,-3.0924 -1.33054,-7.6124 -4.76444,-13.5601 m 27.9084,-27.2836 -4.44256,3.0921 c -1.65867,-2.0739 -3.447,-3.326 -5.36501,-3.7563 -1.92496,-0.4044 -3.77711,-0.093 -5.55649,0.9344 -2.14182,1.2366 -3.48805,3.0902 -4.03867,5.561 -0.55064,2.4706 -0.0554,5.0405 1.48553,7.7096 1.46487,2.5372 3.33731,4.1252 5.61728,4.764 2.26352,0.6483 4.54856,0.3066 6.85515,-1.0251 1.43339,-0.8276 2.53648,-1.9038 3.30926,-3.2287 0.78232,-1.3085 1.20337,-2.6718 1.26314,-4.0903 l 4.49048,-1.8676 7.23474,20.6353 -18.01615,10.4017 -2.45415,-4.2508 14.45741,-8.3469 -3.66939,-10.8644 c -1.29963,2.7714 -3.14396,4.8467 -5.53294,6.226 -3.16332,1.8263 -6.46492,2.2717 -9.90488,1.336 -3.43986,-0.9356 -6.15386,-3.1251 -8.14193,-6.5685 -1.89293,-3.2787 -2.57344,-6.6642 -2.04154,-10.1566 0.6299,-4.2739 2.95486,-7.5714 6.97491,-9.8924 3.29514,-1.9024 6.52161,-2.535 9.67936,-1.8978 3.14134,0.6468 5.74014,2.4085 7.79645,5.2853 m 5.93859,-16.082 4.44843,-2.5683 16.3658,28.3464 c 0.48119,-1.6398 1.3001,-3.4746 2.45676,-5.5043 1.14016,-2.0204 2.25481,-3.6854 3.3439,-4.9951 l 2.4827,4.3002 c -1.81246,2.6061 -3.1692,5.2786 -4.07022,8.0175 -0.90102,2.7389 -1.28688,5.1145 -1.15755,7.1268 l -2.86677,1.6551 -21.00305,-36.3783 m -507.17489,15.4792 c -2.47317,4.2837 -4.89783,7.475 -7.274,9.574 -2.4021,2.106 -4.87716,3.368 -7.42519,3.7862 -2.56444,0.4086 -5.16473,-0.1481 -7.80087,-1.67 -1.94409,-1.1225 -3.42103,-2.5024 -4.43081,-4.1398 -1.01922,-1.621 -1.57859,-3.4487 -1.67813,-5.4832 -0.10895,-2.0181 0.17824,-4.2467 0.86158,-6.686 0.6739,-2.4228 2.04767,-5.43 4.1213,-9.0217 2.45419,-4.2507 4.87409,-7.4338 7.25972,-9.5493 2.37617,-2.099 4.85123,-3.3611 7.42519,-3.7862 2.54802,-0.4181 5.1483,0.1386 7.80087,1.67 3.49285,2.0166 5.51312,4.8526 6.06081,8.5079 0.64824,4.3943 -0.99192,9.9937 -4.92047,16.7981 m -4.572,-2.6396 c 3.43392,-5.9478 5.02964,-10.3097 4.78713,-13.0858 -0.26845,-2.7691 -1.42419,-4.7434 -3.46719,-5.923 -2.04296,-1.1795 -4.32717,-1.1802 -6.85261,0 -2.54187,1.1686 -5.52502,4.7185 -8.94945,10.6497 -3.4434,5.9642 -5.03087,10.3309 -4.76243,13.1 0.25203,2.7596 1.416,4.7387 3.49191,5.9373 2.043,1.1795 4.17349,1.2562 6.39144,0.2302 2.80691,-1.3231 5.92729,-4.9585 9.3612,-10.9062 m 26.30565,-8.6385 4.44843,2.5683 -16.3658,28.3464 c 1.66071,-0.4032 3.65914,-0.6114 5.9953,-0.6246 2.31972,-0.023 4.31899,0.1101 5.9978,0.3984 l -2.4827,4.3002 c -3.16316,-0.2666 -6.156,-0.1054 -8.97852,0.4838 -2.82245,0.5892 -5.0727,1.4428 -6.75075,2.5609 l -2.86677,-1.6551 21.00301,-36.3783 m 19.08176,16.7175 2.46842,-4.2755 23.94739,13.8261 c -0.58539,1.0899 -1.35285,2.0198 -2.30253,2.7895 -1.5513,1.2792 -3.45081,2.3243 -5.69852,3.1355 -2.26417,0.8016 -5.26414,1.508 -8.99996,2.1191 -5.80206,0.9558 -9.93727,1.9733 -12.40565,3.0525 -2.47784,1.0956 -4.20188,2.4837 -5.17217,4.1643 -1.01777,1.7628 -1.23956,3.6119 -0.66536,5.5471 0.54828,1.9421 1.83565,3.4981 3.86213,4.6681 2.14187,1.2366 4.22631,1.5833 6.25334,1.0402 2.02708,-0.5432 3.70519,-1.9468 5.03434,-4.2109 l 4.3009,3.1092 c -2.28206,3.2297 -4.95824,5.1445 -8.02857,5.7444 -3.07979,0.6163 -6.3414,-0.07 -9.78484,-2.0576 -3.47634,-2.0071 -5.67131,-4.5595 -6.58492,-7.6571 -0.91353,-3.0977 -0.54752,-6.0717 1.09805,-8.9219 0.83712,-1.4499 1.95649,-2.7038 3.35811,-3.7618 1.40171,-1.058 3.24159,-1.9619 5.51966,-2.7115 2.26166,-0.7592 5.77062,-1.5672 10.52687,-2.4238 3.96275,-0.6997 6.55609,-1.2344 7.78006,-1.6042 1.21448,-0.3532 2.3019,-0.7908 3.26226,-1.3128 l -17.76901,-10.2589 m 230.44792,66.6012 -5.22221,0.4566 c -0.24731,-2.0927 -0.81805,-3.8144 -1.7122,-5.1652 -0.91317,-1.3317 -2.32098,-2.4161 -4.22344,-3.2531 -1.90243,-0.8181 -4.04268,-1.2271 -6.42075,-1.2271 -2.1117,0 -3.97609,0.3139 -5.5932,0.9417 -1.61705,0.6278 -2.81559,1.4839 -3.59562,2.5683 -0.799,1.1034 -1.19851,2.3019 -1.19854,3.5956 3e-5,1.3127 0.38052,2.4542 1.14146,3.4244 0.76101,0.9893 2.01663,1.8168 3.76685,2.4827 1.12247,0.4376 3.60516,1.1129 7.44808,2.0261 3.84295,0.9322 6.53491,1.8073 8.07588,2.6254 1.99758,1.0463 3.491,2.34 4.48027,3.881 0.97025,1.56 1.45537,3.3007 1.45537,5.2222 0,2.1117 -0.59927,4.0807 -1.79781,5.9071 -1.19854,1.8453 -2.94879,3.2436 -5.25076,4.1949 -2.30194,0.9511 -4.86073,1.4268 -7.67637,1.4268 -3.10097,0 -5.83097,-0.5042 -8.19003,-1.5125 -2.37803,-0.9893 -4.20438,-2.4541 -5.47905,-4.3946 -1.27461,-1.9405 -1.95949,-4.1378 -2.05464,-6.5919 l 5.30782,-0.3996 c 0.2854,2.6444 1.25565,4.6419 2.91075,5.9927 1.63613,1.3507 4.06174,2.0261 7.27686,2.0261 3.34832,0 5.79296,-0.6183 7.33393,-1.8549 1.52197,-1.2176 2.28294,-2.692 2.28294,-4.4231 0,-1.503 -0.54219,-2.7396 -1.6266,-3.7098 -1.06535,-0.9703 -3.84292,-1.969 -8.33271,-2.9963 -4.50878,-1.0084 -7.60025,-1.893 -9.27443,-2.654 -2.4351,-1.1224 -4.23291,-2.5493 -5.39344,-4.2805 -1.16046,-1.7122 -1.7407,-3.6907 -1.74074,-5.9356 4e-5,-2.2259 0.63736,-4.3281 1.91196,-6.3066 1.27467,-1.9595 3.11053,-3.491 5.50759,-4.5944 2.37808,-1.0844 5.06053,-1.6266 8.04735,-1.6266 3.78588,0 6.96296,0.5517 9.53125,1.6551 2.54929,1.1034 4.55637,2.7586 6.02125,4.9654 1.44586,2.2259 2.20684,4.7371 2.28293,7.5337 m -33.13112,-923.94822 0,-41.8348 5.67881,0 21.97326,32.84574 0,-32.84574 5.30782,0 0,41.8348 -5.6788,0 -21.97326,-32.87428 0,32.87428 -5.30783,0"
       inkscape:connector-curvature="0" />
    <path
       id="CompassCircle"
       style="fill:none;stroke:#ffffff;stroke-width:5;stroke-linecap:square;stroke-linejoin:miter;stroke-miterlimit:4;stroke-opacity:1;stroke-dasharray:none"
       d="m 591.5213,657.19464 6.39414,-36.263 m 70.71095,56.92328 12.594,-34.60175 m 125.14093,114.12305 23.66899,-28.2076 m 32.77586,84.65248 28.2076,-23.669 m 51.31369,161.40393 34.60175,-12.59403 m -13.94149,89.699 36.26299,-6.3942 m -36.26298,165.4368 36.26299,6.3942 m -656.47111,-550.84471 12.59401,34.60178 m 70.71093,-56.92327 6.39415,36.26303 m -89.69907,915.91697 12.59402,-34.6018 m -161.40393,-51.3136 23.66901,-28.2076 m -84.65247,-32.7759 28.20763,-23.669 M 47.070809,1277.4028 81.672588,1264.8087 m -56.923272,-70.7109 36.263029,-6.3942 m 365.072235,407.7295 6.39415,-36.2631 m -407.729416,-536.9031 36.26303,6.3941 m 881.315136,236.1477 34.60175,12.594 M 47.070808,938.9619 l 34.60178,12.59413 m 781.133582,450.98757 28.20761,23.669 m -84.65245,32.7759 23.66899,28.2076 m -161.40393,51.3137 12.59401,34.6017 m -89.6991,-13.9415 6.39415,36.263 m -464.9292,-805.281 28.20763,23.669 m 32.77582,-84.65246 23.66901,28.20763 M 768,1551.5873 C 523.11417,1692.9722 209.97989,1609.0681 68.59499,1364.1823 -72.789905,1119.2965 11.114175,806.1622 256,664.77729 500.88582,523.39239 814.0201,607.29647 955.405,852.1823 c 141.3849,244.8859 57.4808,558.0201 -187.405,699.405 z"
       inkscape:connector-curvature="0" />
    <path
       style="opacity:0.98999999;fill:none;stroke:#3333ff;stroke-width:5;stroke-linecap:square;stroke-linejoin:miter;stroke-miterlimit:4;stroke-opacity:1;stroke-dashoffset:0;display:none"
       d="m 489.5,581.67798 45,0 -22.5,35.46808 z"
       id="HeadingBug"
       inkscape:connector-curvature="0"
       sodipodi:nodetypes="cccc"
       display="none" />
  </g>
  <g
     inkscape:groupmode="layer"
     id="Altimeter"
     inkscape:label="Altimeter"
     style="display:inline"
     sodipodi:insensitive="true">
    <g
       id="AltimeterLadderLabels"
       data-bind="attr: { transform: altimeterLadderLabelTransform }">
      <text
         sodipodi:linespacing="100%"
         id="AltimeterLadderLabel0"
         data-bind="text: altitudeLadderLabelAnimation0"
         y="709.37671"
         x="984.84155"
         style="font-size:60.76391983px;font-style:normal;font-variant:normal;font-weight:normal;font-stretch:normal;text-align:end;line-height:100%;letter-spacing:0px;word-spacing:0px;writing-mode:lr-tb;text-anchor:end;fill:#ffffff;fill-opacity:1;stroke:none;display:inline;font-family:Liberation Sans;-inkscape-font-specification:Liberation Sans"
         xml:space="preserve"><tspan
           id="tspan5964"
           y="709.37671"
           x="984.84155"
           sodipodi:role="line">00,0</tspan></text>
      <text
         xml:space="preserve"
         style="font-size:60.76391983px;font-style:normal;font-variant:normal;font-weight:normal;font-stretch:normal;text-align:end;line-height:100%;letter-spacing:0px;word-spacing:0px;writing-mode:lr-tb;text-anchor:end;fill:#ffffff;fill-opacity:1;stroke:none;display:inline;font-family:Liberation Sans;-inkscape-font-specification:Liberation Sans"
         x="984.84235"
         y="557.37616"
         id="AltimeterLadderLabel1"
         data-bind="text: altitudeLadderLabelAnimation1"
         sodipodi:linespacing="100%"
         transform="scale(0.99999899,1.000001)"><tspan
           sodipodi:role="line"
           x="984.84235"
           y="557.37616"
           id="tspan4618">10,0</tspan></text>
      <text
         sodipodi:linespacing="100%"
         id="AltimeterLadderLabel2"
         data-bind="text: altitudeLadderLabelAnimation2"
         y="405.37589"
         x="984.84332"
         style="font-size:60.76391983px;font-style:normal;font-variant:normal;font-weight:normal;font-stretch:normal;text-align:end;line-height:100%;letter-spacing:0px;word-spacing:0px;writing-mode:lr-tb;text-anchor:end;fill:#ffffff;fill-opacity:1;stroke:none;display:inline;font-family:Liberation Sans;-inkscape-font-specification:Liberation Sans"
         xml:space="preserve"
         transform="scale(0.99999793,1.0000021)"><tspan
           id="tspan5960"
           y="405.37589"
           x="984.84332"
           sodipodi:role="line">20,0</tspan></text>
      <text
         sodipodi:linespacing="100%"
         id="AltimeterLadderLabel3"
         data-bind="text: altitudeLadderLabelAnimation3"
         y="253.37671"
         x="984.8418"
         style="font-size:60.76391983px;font-style:normal;font-variant:normal;font-weight:normal;font-stretch:normal;text-align:end;line-height:100%;letter-spacing:0px;word-spacing:0px;writing-mode:lr-tb;text-anchor:end;fill:#ffffff;fill-opacity:1;stroke:none;display:inline;font-family:Liberation Sans;-inkscape-font-specification:Liberation Sans"
         xml:space="preserve"><tspan
           id="tspan4612"
           y="253.37671"
           x="984.8418"
           sodipodi:role="line">30,0</tspan></text>
      <text
         xml:space="preserve"
         style="font-size:60.76391983px;font-style:normal;font-variant:normal;font-weight:normal;font-stretch:normal;text-align:end;line-height:100%;letter-spacing:0px;word-spacing:0px;writing-mode:lr-tb;text-anchor:end;fill:#ffffff;fill-opacity:1;stroke:none;display:inline;font-family:Liberation Sans;-inkscape-font-specification:Liberation Sans"
         x="984.8418"
         y="101.37672"
         id="AltimeterLadderLabel4"
         data-bind="text: altitudeLadderLabelAnimation4"
         sodipodi:linespacing="100%"><tspan
           sodipodi:role="line"
           x="984.8418"
           y="101.37672"
           id="tspan5968">40,0</tspan></text>
    </g>
    <path
       id="AltimeterLadder"
       data-bind="attr: { transform: altimeterLadderTransform }"
       style="fill:none;stroke:#ffffff;stroke-width:2.99999976;stroke-linecap:square;stroke-linejoin:miter;stroke-miterlimit:4;stroke-opacity:1;stroke-dasharray:none;display:inline"
       d="m 995.5,688.5 c 5.6667,0 11.3333,0 17,0 M 995.5,80 c 5.6667,0 11.3333,0 17,0 m -17,228 c 5.6667,0 11.3333,0 17,0 m -17,76 c 5.6667,0 11.3333,0 17,0 m -17,-228 c 5.6667,0 11.3333,0 17,0 m -17,76 c 5.6667,0 11.3333,0 17,0 m -17,304 c 5.6667,0 11.3333,0 17,0 m -17,76 c 5.6667,0 11.3333,0 17,0 m -17,-152 c 5.6667,0 11.3333,0 17,0 m -7,-114 c 2.3333,0 4.6667,0 7,0 m -7,76 c 2.3333,0 4.6667,0 7,0 m -7,-228 c 2.3333,0 4.6667,0 7,0 m -7,76 c 2.3333,0 4.6667,0 7,0 m -7,304 c 2.3333,0 4.6667,0 7,0 m -7,-76 c 2.3333,0 4.6667,0 7,0 m -7,-380 c 2.3333,0 4.6667,0 7,0 m -7,532.25 c 2.3333,0 4.6667,0 7,0"
       inkscape:connector-curvature="0"
       sodipodi:nodetypes="cccccccccccccccccccccccccccccccccc" />
    <path
       style="opacity:0.98999999;fill:#000000;fill-opacity:1;stroke:none"
       d="m 851.02128,357.131 149.11182,0 10.8669,26.86901 -10.8669,26.86899 -149.11182,0 z"
       id="rect3091"
       inkscape:connector-curvature="0"
       sodipodi:nodetypes="cccccc" />
    <text
       sodipodi:linespacing="100%"
       id="AltimeterThousands"
       y="405.46622"
       x="934.74469"
       style="font-size:60.76404572px;font-style:normal;font-variant:normal;font-weight:normal;font-stretch:normal;text-align:end;line-height:100%;letter-spacing:0px;word-spacing:0px;writing-mode:lr-tb;text-anchor:end;fill:#ffffff;fill-opacity:1;stroke:none;display:inline;font-family:Liberation Sans;-inkscape-font-specification:Liberation Sans"
       xml:space="preserve"><tspan
         y="405.46622"
         x="934.74469"
         id="tspan3870"
         data-bind="text: altimeterThousandsTextAnimation"
         sodipodi:role="line">99</tspan></text>
    <text
       xml:space="preserve"
       style="font-size:40px;font-style:normal;font-variant:normal;font-weight:normal;font-stretch:normal;text-align:start;line-height:100%;letter-spacing:0px;word-spacing:0px;writing-mode:lr-tb;text-anchor:start;fill:#ffffff;fill-opacity:1;stroke:none;display:inline;font-family:Liberation Sans;-inkscape-font-specification:Liberation Sans"
       x="935.23236"
       y="398.13086"
       id="AltimeterHundrets"
       sodipodi:linespacing="100%"><tspan
         sodipodi:role="line"
         id="tspan3864"
         data-bind="text: altimeterHundretsTextAnimation"
         x="935.23236"
         y="398.13086">999</tspan></text>
  </g>
  <g
     inkscape:groupmode="layer"
     id="ASI"
     inkscape:label="ASI"
     sodipodi:insensitive="true">
    <g
       id="ASILadderLabels"
      data-bind="attr: { transform: asiLadderLabelTransform }">
      <text
         xml:space="preserve"
         style="font-size:60.76391983px;font-style:normal;font-variant:normal;font-weight:normal;font-stretch:normal;text-align:start;line-height:100%;letter-spacing:0px;word-spacing:0px;writing-mode:lr-tb;text-anchor:start;fill:#ffffff;fill-opacity:1;stroke:none;display:inline;font-family:Liberation Sans;-inkscape-font-specification:Liberation Sans"
         x="49.267857"
         y="405.37631"
         id="ASILadderLabel0"
         data-bind="text: asiLadderLabelAnimation0"
         sodipodi:linespacing="100%"><tspan
           sodipodi:role="line"
           x="49.267857"
           y="405.37631"
           id="tspan3107">0</tspan></text>
      <text
         xml:space="preserve"
         style="font-size:60.76391983px;font-style:normal;font-variant:normal;font-weight:normal;font-stretch:normal;text-align:start;line-height:100%;letter-spacing:0px;word-spacing:0px;writing-mode:lr-tb;text-anchor:start;fill:#ffffff;fill-opacity:1;stroke:none;display:inline;font-family:Liberation Sans;-inkscape-font-specification:Liberation Sans"
         x="45.173618"
         y="253.37526"
         id="ASILadderLabel1"
         data-bind="text: asiLadderLabelAnimation1"
         sodipodi:linespacing="100%"><tspan
           sodipodi:role="line"
           x="45.173618"
           y="253.37526"
           id="tspan3111">20</tspan></text>
      <text
         sodipodi:linespacing="100%"
         id="ASILadderLabel2"
         data-bind="text: asiLadderLabelAnimation2"
         y="101.37526"
         x="50.009815"
         style="font-size:60.76391983px;font-style:normal;font-variant:normal;font-weight:normal;font-stretch:normal;text-align:start;line-height:100%;letter-spacing:0px;word-spacing:0px;writing-mode:lr-tb;text-anchor:start;fill:#ffffff;fill-opacity:1;stroke:none;display:inline;font-family:Liberation Sans;-inkscape-font-specification:Liberation Sans"
         xml:space="preserve"><tspan
           id="tspan3115"
           y="101.37526"
           x="50.009815"
           sodipodi:role="line">40</tspan></text>
      <text
         sodipodi:linespacing="100%"
         id="ASILadderLabel3"
         data-bind="text: asiLadderLabelAnimation3"
         y="-50.623745"
         x="49.238392"
         style="font-size:60.76391983px;font-style:normal;font-variant:normal;font-weight:normal;font-stretch:normal;text-align:start;line-height:100%;letter-spacing:0px;word-spacing:0px;writing-mode:lr-tb;text-anchor:start;fill:#ffffff;fill-opacity:1;stroke:none;display:inline;font-family:Liberation Sans;-inkscape-font-specification:Liberation Sans"
         xml:space="preserve"><tspan
           id="tspan3119"
           y="-50.623745"
           x="49.238392"
           sodipodi:role="line">60</tspan></text>
      <text
         transform="scale(1.0000011,0.99999891)"
         xml:space="preserve"
         style="font-size:60.76391983px;font-style:normal;font-variant:normal;font-weight:normal;font-stretch:normal;text-align:start;line-height:100%;letter-spacing:0px;word-spacing:0px;writing-mode:lr-tb;text-anchor:start;fill:#ffffff;fill-opacity:1;stroke:none;display:inline;font-family:Liberation Sans;-inkscape-font-specification:Liberation Sans"
         x="51.018791"
         y="-202.62398"
         id="ASILadderLabel4"
         data-bind="text: asiLadderLabelAnimation4"
         sodipodi:linespacing="100%"><tspan
           sodipodi:role="line"
           x="51.018791"
           y="-202.62398"
           id="tspan3123">80</tspan></text>
    </g>
    <path
       style="fill:#00fc00;fill-opacity:1;stroke:none"
       d="m 10,385 20,0 0,1 -20,0 z"
       id="GreenArc"
       inkscape:connector-curvature="0" />
    <path
       inkscape:connector-curvature="0"
       id="YellowArc"
       d="m 10,384 20,0 0,1 -20,0 z"
       style="fill:#f6fc00;fill-opacity:1;stroke:none" />
    <path
       style="fill:#dd0100;fill-opacity:1;stroke:none"
       d="m 10,383 20,0 0,1 -20,0 z"
       id="RedArc"
       inkscape:connector-curvature="0" />
    <path
       inkscape:connector-curvature="0"
       d="m 28.5,384.5 c -5.6667,0 -11.3333,0 -17,0 m 17,-608.5 c -5.6667,0 -11.3333,0 -17,0 m 17,228.0000001 c -5.6667,0 -11.3333,0 -17,0 M 28.5,80 c -5.6667,0 -11.3333,0 -17,0 m 17,-228 c -5.6667,0 -11.3333,0 -17,0 m 17,76 c -5.6667,0 -11.3333,0 -17,0 m 17,304 c -5.6667,0 -11.3333,0 -17,0 m 17,76 c -5.6667,0 -11.3333,0 -17,0 m 17,-152 c -5.6667,0 -11.3333,0 -17,0 m 7,-114 c -2.3333,0 -4.6667,0 -7,0 m 7,76 c -2.3333,0 -4.6667,0 -7,0 m 7,-228 c -2.3333,0 -4.6667,0 -7,0 m 7,76 c -2.3333,0 -4.6667,0 -7,0 m 7,304 c -2.3333,0 -4.6667,0 -7,0 m 7,-76 c -2.3333,0 -4.6667,0 -7,0 m 7,-380 c -2.3333,0 -4.6667,0 -7,0 m 7,532.25 c -2.3333,0 -4.6667,0 -7,0"
       style="fill:none;stroke:#ffffff;stroke-width:2.99999976;stroke-linecap:square;stroke-linejoin:miter;stroke-miterlimit:4;stroke-opacity:1;stroke-dasharray:none;display:inline"
       id="ASILadder"
       data-bind="attr: { transform: asiLadderTransform }"
       sodipodi:nodetypes="cccccccccccccccccccccccccccccccccc" />
    <path
       style="opacity:0.98999999;fill:#000000;fill-opacity:1;stroke:none;display:inline"
       d="m 158,357.13139 -134.133126,0 L 13,384.0002 23.866874,410.869 158,410.869 z"
       id="rect3091-0"
       inkscape:connector-curvature="0"
       sodipodi:nodetypes="cccccc" />
    <text
       sodipodi:linespacing="100%"
       id="ASIDigits"
       data-bind="text: asiTextAnimation"
       y="405.46622"
       x="150.82758"
       style="font-size:60.76404572px;font-style:normal;font-variant:normal;font-weight:normal;font-stretch:normal;text-align:end;line-height:100%;letter-spacing:0px;word-spacing:0px;writing-mode:lr-tb;text-anchor:end;fill:#ffffff;fill-opacity:1;stroke:none;display:inline;font-family:Liberation Sans;-inkscape-font-specification:Liberation Sans"
       xml:space="preserve"><tspan
         transform="translate(0.24257198,0)"
         y="405.46622"
         x="150.82758"
         id="tspan3870-7"
         sodipodi:role="line">000</tspan></text>
  </g>
  <g
     inkscape:groupmode="layer"
     id="FixedElements"
     inkscape:label="FixedElements"
     style="display:inline">
    <path
       id="AircraftSymbol"
       style="fill:none;stroke:#ffffff;stroke-width:2.99999976;stroke-linecap:square;stroke-linejoin:miter;stroke-miterlimit:4;stroke-opacity:1;stroke-dasharray:none"
       d="m 511.99994,311.00003 0,146.99988 M 438.5,384.5 l 147,0"
       inkscape:connector-curvature="0" />
    <g
       id="HeadingIndicator">
      <path
         sodipodi:nodetypes="cccccc"
         inkscape:connector-curvature="0"
         id="rect4481"
         d="m 451.08101,688.25052 60.91905,-20.17944 60.91906,20.17944 0,66.24948 -121.83812,0 z"
         style="opacity:0.98999999;fill:none;stroke:#ffffff;stroke-width:5;stroke-linecap:square;stroke-linejoin:miter;stroke-miterlimit:4;stroke-opacity:1;stroke-dashoffset:0" />
      <text
         xml:space="preserve"
         style="font-size:58.44316483px;font-style:normal;font-variant:normal;font-weight:normal;font-stretch:normal;text-align:center;line-height:100%;letter-spacing:0px;word-spacing:0px;writing-mode:lr-tb;text-anchor:middle;fill:#ffffff;fill-opacity:1;stroke:none;font-family:Liberation Mono;-inkscape-font-specification:Liberation Mono"
         x="512.08563"
         y="735.15411"
         id="Heading"
         sodipodi:linespacing="100%"><tspan
           sodipodi:role="line"
           id="tspan4499"
           x="512.08563"
           y="735.15411"
           data-bind="text: headingTextAnimation"
           transform="translate(0.24257198,0)">999</tspan></text>
    </g>
    <path
       style="opacity:0.98999999;fill:#ffffff;fill-opacity:1;stroke:none;display:inline"
       d="m 537,41.638298 c 0,13.80712 -11.19288,25 -24.99999,25 -13.80712,0 -25.00001,-11.19288 -25.00001,-25 0,-13.807111 11.19289,-25 25.00001,-25 13.80711,0 24.99999,11.192889 24.99999,25 z"
       id="SlipSkidBall"
       data-bind="attr: { transform: slipSkidTransform }"
       inkscape:connector-curvature="0" />
    <path
       id="SlipSkidBallMarking"
       style="fill:none;stroke:#edff6a;stroke-width:3;stroke-linecap:square;stroke-linejoin:miter;stroke-miterlimit:4;stroke-opacity:1;stroke-dasharray:none"
       d="m 537,19.506649 0,46.986702 m -50,-46.986702 0,46.986702 M 587,30.500399 587,54 m 75,-34.493351 0,46.986702 M 437,30.500399 437,54 m -75,-34.493351 0,46.986702"
       inkscape:connector-curvature="0" />
    <path
       style="opacity:0.98999999;fill:none;stroke:#000000;stroke-width:1;stroke-linecap:square;stroke-linejoin:miter;stroke-miterlimit:4;stroke-opacity:1;stroke-dashoffset:0"
       d="m 0.49999997,0.49999303 1023.00000003,0 0,766.99999697 -1023.00000003,0 z"
       id="rect4511"
       inkscape:connector-curvature="0" />
  </g>
</svg>
